<svg width="212" height="75" viewBox="0 0 212 75" fill="none" xmlns="http://www.w3.org/2000/svg">
<path d="M71.193 64L69.741 58.951H61.59L60.138 64H54L62.019 40.339H69.213L77.331 64H71.193ZM67.101 49.546C66.991 49.15 66.837 48.622 66.639 47.962C66.463 47.28 66.276 46.587 66.078 45.883C65.902 45.179 65.759 44.585 65.649 44.101C65.561 44.585 65.418 45.19 65.22 45.916C65.044 46.62 64.868 47.313 64.692 47.995C64.516 48.655 64.373 49.172 64.263 49.546L62.877 54.265H68.487L67.101 49.546Z" fill="#001F8B"/>
<path d="M92.248 45.553C94.272 45.553 95.889 46.356 97.099 47.962C98.309 49.546 98.914 51.856 98.914 54.892C98.914 56.96 98.617 58.698 98.023 60.106C97.429 61.514 96.615 62.57 95.581 63.274C94.569 63.978 93.403 64.33 92.083 64.33C91.225 64.33 90.488 64.22 89.872 64C89.278 63.78 88.761 63.505 88.321 63.175C87.903 62.823 87.551 62.471 87.265 62.119H87.034C87.1 62.537 87.155 62.977 87.199 63.439C87.243 63.901 87.265 64.396 87.265 64.924V71.92H81.688V45.883H86.209L87.001 48.193H87.265C87.573 47.709 87.947 47.269 88.387 46.873C88.849 46.477 89.399 46.158 90.037 45.916C90.675 45.674 91.412 45.553 92.248 45.553ZM90.301 49.942C89.553 49.942 88.959 50.107 88.519 50.437C88.101 50.767 87.793 51.262 87.595 51.922C87.397 52.56 87.287 53.374 87.265 54.364V54.859C87.265 55.937 87.353 56.85 87.529 57.598C87.727 58.324 88.046 58.885 88.486 59.281C88.948 59.655 89.575 59.842 90.367 59.842C91.005 59.842 91.533 59.666 91.951 59.314C92.391 58.94 92.71 58.379 92.908 57.631C93.128 56.883 93.238 55.948 93.238 54.826C93.238 53.132 92.996 51.9 92.512 51.13C92.028 50.338 91.291 49.942 90.301 49.942Z" fill="#001F8B"/>
<path d="M115.272 45.553C117.296 45.553 118.913 46.356 120.123 47.962C121.333 49.546 121.938 51.856 121.938 54.892C121.938 56.96 121.641 58.698 121.047 60.106C120.453 61.514 119.639 62.57 118.605 63.274C117.593 63.978 116.427 64.33 115.107 64.33C114.249 64.33 113.512 64.22 112.896 64C112.302 63.78 111.785 63.505 111.345 63.175C110.927 62.823 110.575 62.471 110.289 62.119H110.058C110.124 62.537 110.179 62.977 110.223 63.439C110.267 63.901 110.289 64.396 110.289 64.924V71.92H104.712V45.883H109.233L110.025 48.193H110.289C110.597 47.709 110.971 47.269 111.411 46.873C111.873 46.477 112.423 46.158 113.061 45.916C113.699 45.674 114.436 45.553 115.272 45.553ZM113.325 49.942C112.577 49.942 111.983 50.107 111.543 50.437C111.125 50.767 110.817 51.262 110.619 51.922C110.421 52.56 110.311 53.374 110.289 54.364V54.859C110.289 55.937 110.377 56.85 110.553 57.598C110.751 58.324 111.07 58.885 111.51 59.281C111.972 59.655 112.599 59.842 113.391 59.842C114.029 59.842 114.557 59.666 114.975 59.314C115.415 58.94 115.734 58.379 115.932 57.631C116.152 56.883 116.262 55.948 116.262 54.826C116.262 53.132 116.02 51.9 115.536 51.13C115.052 50.338 114.315 49.942 113.325 49.942Z" fill="#001F8B"/>
<path d="M146.505 40.438C149.519 40.438 151.741 41.098 153.171 42.418C154.623 43.716 155.349 45.531 155.349 47.863C155.349 48.919 155.195 49.931 154.887 50.899C154.579 51.845 154.062 52.692 153.336 53.44C152.632 54.188 151.697 54.782 150.531 55.222C149.387 55.662 147.968 55.882 146.274 55.882H144.294V64H138.684V40.438H146.505ZM146.307 45.025H144.294V51.295H145.779C146.549 51.295 147.22 51.185 147.792 50.965C148.386 50.745 148.848 50.393 149.178 49.909C149.508 49.425 149.673 48.798 149.673 48.028C149.673 47.06 149.398 46.323 148.848 45.817C148.298 45.289 147.451 45.025 146.307 45.025Z" fill="#001F8B"/>
<path d="M166.631 45.883V64H161.087V45.883H166.631ZM163.892 38.689C164.684 38.689 165.377 38.865 165.971 39.217C166.565 39.569 166.862 40.251 166.862 41.263C166.862 42.253 166.565 42.935 165.971 43.309C165.377 43.661 164.684 43.837 163.892 43.837C163.056 43.837 162.341 43.661 161.747 43.309C161.175 42.935 160.889 42.253 160.889 41.263C160.889 40.251 161.175 39.569 161.747 39.217C162.341 38.865 163.056 38.689 163.892 38.689Z" fill="#001F8B"/>
<path d="M178.988 64H173.411V38.92H178.988V64Z" fill="#001F8B"/>
<path d="M191.313 64H185.736V38.92H191.313V64Z" fill="#001F8B"/>
<path d="M211.096 58.522C211.096 59.71 210.821 60.744 210.271 61.624C209.743 62.482 208.907 63.153 207.763 63.637C206.619 64.099 205.167 64.33 203.407 64.33C202.131 64.33 201.009 64.253 200.041 64.099C199.095 63.945 198.138 63.67 197.17 63.274V58.786C198.226 59.248 199.326 59.611 200.47 59.875C201.636 60.139 202.604 60.271 203.374 60.271C204.21 60.271 204.815 60.161 205.189 59.941C205.563 59.721 205.75 59.413 205.75 59.017C205.75 58.731 205.651 58.478 205.453 58.258C205.277 58.038 204.903 57.785 204.331 57.499C203.781 57.213 202.956 56.85 201.856 56.41C200.778 55.948 199.887 55.475 199.183 54.991C198.501 54.507 197.984 53.924 197.632 53.242C197.302 52.56 197.137 51.724 197.137 50.734C197.137 49.018 197.797 47.731 199.117 46.873C200.459 45.993 202.23 45.553 204.43 45.553C205.596 45.553 206.696 45.674 207.73 45.916C208.764 46.158 209.831 46.532 210.931 47.038L209.347 50.8C208.753 50.536 208.159 50.305 207.565 50.107C206.993 49.909 206.443 49.755 205.915 49.645C205.387 49.535 204.892 49.48 204.43 49.48C203.814 49.48 203.341 49.568 203.011 49.744C202.681 49.898 202.516 50.14 202.516 50.47C202.516 50.712 202.604 50.943 202.78 51.163C202.978 51.361 203.341 51.581 203.869 51.823C204.419 52.065 205.211 52.406 206.245 52.846C207.279 53.264 208.159 53.704 208.885 54.166C209.611 54.628 210.161 55.2 210.535 55.882C210.909 56.564 211.096 57.444 211.096 58.522Z" fill="#001F8B"/>
<path d="M67.9614 28H61.607V17.2159C61.607 17.0122 61.607 16.6456 61.607 16.1161C61.607 15.5865 61.607 14.9959 61.607 14.3442C61.6273 13.6924 61.6477 13.112 61.6681 12.6028C61.3422 12.9083 61.108 13.1731 60.9654 13.3971C60.8228 13.6211 60.6599 13.8146 60.4766 13.9776L58.2159 16.055L54.886 12.2973L62.1569 6.18731H67.9614V28Z" fill="#001F8B"/>
<path d="M86.9212 28H71.7379V24.1202L76.6564 18.7434C77.6951 17.6028 78.4894 16.6863 79.0393 15.9939C79.5892 15.281 79.9558 14.6802 80.1391 14.1914C80.3428 13.7026 80.4446 13.1934 80.4446 12.6639C80.4446 12.0122 80.2613 11.5437 79.8947 11.2586C79.5485 10.9735 79.1717 10.8309 78.7644 10.8309C78.1941 10.8309 77.6035 11.0244 76.9925 11.4114C76.3815 11.7983 75.6584 12.3788 74.8234 13.1527L71.4018 9.36451C72.0332 8.77387 72.7053 8.21379 73.4181 7.68426C74.1309 7.15472 74.9762 6.72702 75.9538 6.40116C76.9517 6.05492 78.1635 5.88181 79.5892 5.88181C81.0149 5.88181 82.2471 6.14657 83.2858 6.67611C84.3448 7.18527 85.1595 7.88792 85.7298 8.78406C86.3204 9.68019 86.6157 10.6985 86.6157 11.8391C86.6157 12.7759 86.4731 13.6211 86.188 14.3747C85.9232 15.1283 85.5261 15.8615 84.9966 16.5743C84.4874 17.2871 83.8764 18.0509 83.1636 18.8656C82.4711 19.6802 81.6972 20.6273 80.8418 21.7067L79.8336 22.9898L79.8031 23.1426H86.9212V28Z" fill="#001F8B"/>
<path d="M88.5287 22.1344V17.4908H96.6855V22.1344H88.5287Z" fill="#001F8B"/>
<path d="M105.266 28H99.1562V6.18731H111.498V10.9226H105.266V15.0774H111.01V19.8126H105.266V28Z" fill="#001F8B"/>
<path d="M126.481 28L125.748 23.9063H119.546L118.752 28H111.878L118.263 6.09566H126.817L133.293 28H126.481ZM123.701 15.444C123.599 14.9552 123.477 14.4053 123.334 13.7943C123.192 13.1833 123.049 12.5519 122.906 11.9002C122.784 11.2281 122.682 10.5967 122.601 10.0061C122.52 10.5967 122.418 11.2179 122.295 11.8696C122.173 12.5213 122.051 13.1527 121.929 13.7637C121.807 14.3747 121.684 14.9246 121.562 15.4134L120.707 19.0794H124.556L123.701 15.444Z" fill="#001F8B"/>
<path d="M144.402 10.7087C143.75 10.7087 143.17 10.8615 142.661 11.167C142.172 11.4521 141.754 11.8798 141.408 12.4501C141.082 13 140.838 13.6721 140.675 14.4664C140.512 15.2607 140.43 16.167 140.43 17.1853C140.43 18.5499 140.593 19.7006 140.919 20.6375C141.266 21.5743 141.765 22.2872 142.416 22.776C143.088 23.2444 143.913 23.4786 144.891 23.4786C145.787 23.4786 146.632 23.3462 147.426 23.0815C148.241 22.8167 149.025 22.4908 149.779 22.1039V27.0835C148.883 27.5112 147.936 27.8167 146.938 28C145.94 28.2037 144.921 28.3055 143.883 28.3055C141.581 28.3055 139.707 27.8371 138.261 26.9002C136.815 25.9633 135.756 24.6599 135.084 22.9898C134.412 21.2994 134.076 19.3544 134.076 17.1548C134.076 15.5051 134.29 13.9979 134.718 12.6334C135.166 11.2484 135.817 10.057 136.673 9.05901C137.549 8.04067 138.608 7.25656 139.85 6.70666C141.113 6.15676 142.559 5.88181 144.188 5.88181C145.166 5.88181 146.255 6.01419 147.457 6.27896C148.659 6.54372 149.748 6.92051 150.726 7.40931L148.862 12.0529C148.17 11.6659 147.467 11.3503 146.754 11.1059C146.062 10.8411 145.278 10.7087 144.402 10.7087Z" fill="#001F8B"/>
<path d="M163.258 28H157.026V11.0142H152.351V6.18731H167.932V11.0142H163.258V28Z" fill="#001F8B"/>
<path d="M189.652 17.0631C189.652 18.7535 189.459 20.2912 189.072 21.6762C188.705 23.0407 188.114 24.222 187.3 25.22C186.505 26.2179 185.467 26.9817 184.184 27.5112C182.921 28.0407 181.383 28.3055 179.571 28.3055C177.799 28.3055 176.281 28.0407 175.019 27.5112C173.756 26.9817 172.717 26.2179 171.902 25.22C171.088 24.222 170.477 23.0407 170.069 21.6762C169.683 20.2912 169.489 18.7434 169.489 17.0326C169.489 14.7719 169.845 12.8065 170.558 11.1364C171.271 9.44597 172.371 8.14251 173.858 7.22601C175.344 6.30951 177.259 5.85126 179.601 5.85126C182.004 5.85126 183.939 6.31969 185.406 7.25656C186.892 8.17306 187.972 9.47652 188.644 11.167C189.316 12.837 189.652 14.8024 189.652 17.0631ZM176.027 17.0631C176.027 18.3666 176.139 19.4969 176.363 20.4542C176.607 21.391 176.994 22.114 177.524 22.6232C178.053 23.1324 178.735 23.387 179.571 23.387C180.467 23.387 181.169 23.1324 181.678 22.6232C182.188 22.114 182.554 21.391 182.778 20.4542C183.002 19.4969 183.114 18.3666 183.114 17.0631C183.114 15.0875 182.85 13.5295 182.32 12.389C181.811 11.2484 180.905 10.6782 179.601 10.6782C178.725 10.6782 178.023 10.9429 177.493 11.4725C176.964 11.9816 176.587 12.7148 176.363 13.6721C176.139 14.6089 176.027 15.7393 176.027 17.0631Z" fill="#001F8B"/>
<path d="M200.222 6.18731C202.076 6.18731 203.624 6.43171 204.866 6.92051C206.129 7.40931 207.076 8.13232 207.707 9.08956C208.338 10.0264 208.654 11.2077 208.654 12.6334C208.654 13.5091 208.532 14.3136 208.288 15.0468C208.063 15.78 207.707 16.4317 207.218 17.002C206.75 17.5723 206.139 18.0713 205.385 18.499L211.312 28H204.224L200.192 20.057H199.306V28H193.074V6.18731H200.222ZM200.253 10.6476H199.306V15.6273H200.131C200.477 15.6273 200.823 15.5458 201.169 15.3829C201.516 15.1996 201.801 14.9144 202.025 14.5275C202.269 14.1201 202.391 13.5804 202.391 12.9083C202.391 12.4399 202.32 12.0427 202.178 11.7169C202.035 11.3706 201.811 11.1059 201.505 10.9226C201.2 10.7393 200.782 10.6476 200.253 10.6476Z" fill="#001F8B"/>
<rect width="46" height="74.1111" rx="6.81481" fill="#001F8B"/>
<path d="M17.037 63.8056C17.037 64.8641 17.8952 65.7222 18.9537 65.7222H27.0463C28.1049 65.7222 28.963 64.8641 28.963 63.8056V63.8056C28.963 62.747 28.1049 61.8889 27.0463 61.8889H18.9537C17.8952 61.8889 17.037 62.747 17.037 63.8056V63.8056Z" fill="white"/>
<circle cx="23.7255" cy="14.902" r="2.90196" fill="white"/>
<circle cx="23.7255" cy="46.0981" r="2.90196" fill="white"/>
<circle cx="7.03923" cy="30.8627" r="2.90196" fill="white"/>
<circle cx="15.7451" cy="17.0784" r="2.90196" fill="white"/>
<circle cx="15.7451" cy="43.9216" r="2.90196" fill="white"/>
<circle cx="9.94118" cy="22.8824" r="2.90196" fill="white"/>
<circle cx="9.94118" cy="38.1177" r="2.90196" fill="white"/>
<circle r="2.90196" transform="matrix(-1 0 0 1 38.9608 30.1373)" fill="white"/>
<circle r="2.90196" transform="matrix(-1 0 0 1 30.9804 17.0784)" fill="white"/>
<circle r="2.90196" transform="matrix(-1 0 0 1 30.9804 43.9216)" fill="white"/>
<circle r="2.90196" transform="matrix(-1 0 0 1 36.7843 22.8824)" fill="white"/>
<circle r="2.90196" transform="matrix(-1 0 0 1 36.7843 38.1177)" fill="white"/>
</svg>
